{"title":"Olympus Has Fallen 2013 1080p x264 AC3 - alrmothe","uid":8624697,"size":8733604746,"categoryP":"video","categoryS":"hd___movies","magnet":"?xt=urn:btih:f4d2b6e0b37c422ec9c27b2261d1f023bb5ba2bf&amp;dn=Olympus+Has+Fallen+2013+1080p+x264+AC3+-+alrmothe&amp;tr=udp%3A%2F%2Ftracker.openbittorrent.com%3A80&amp;tr=udp%3A%2F%2Fopen.demonii.com%3A1337&amp;tr=udp%3A%2F%2Ftracker.coppersurfer.tk%3A6969&amp;tr=udp%3A%2F%2Fexodus.desync.com%3A6969","seeders":1,"leechers":1,"uploader":".alrmothe","files":20,"time":1372467811,"description":"***************************************************************\n\nOlympus Has Fallen 2013 1080p x264 AC3 - alrmothe\n\n***************************************************************\n\nTitle : Olympus Has Fallen\nYEAR: 2013\nGENRE : Action | Thriller     \nimdb URL :http://www.imdb.com/title/tt2302755/\nFormat: Matroska\nOverall bit rate: 9773 kbps\nFormat version: Version 4 / Version 2\nFile size:  8.13 GiB\nDuration:  1h 59mn\n\n***************************************************************\n\nVideo\nFormat : AVC \nFormat/Info : Advanced Video Codec \nFormat profile : &lt;a class=&quot;__cf_email__&quot; href=&quot;/cdn-cgi/l/email-protection&quot; data-cfemail=&quot;91d9f8f6f9d1dda5bfa0&quot;&gt;[email&amp;#160;protected]&lt;/a&gt;&lt;script cf-hash='f9e31' type=&quot;text/javascript&quot;&gt;\n/* &lt;![CDATA[ */!function(){try{var t=&quot;currentScript&quot;in document?document.currentScript:function(){for(var t=document.getElementsByTagName(&quot;script&quot;),e=t.length;e--;)if(t[e].getAttribute(&quot;cf-hash&quot;))return t[e]}();if(t&amp;&amp;t.previousSibling){var e,r,n,i,c=t.previousSibling,a=c.getAttribute(&quot;data-cfemail&quot;);if(a){for(e=&quot;&quot;,r=parseInt(a.substr(0,2),16),n=2;a.length-n;n+=2)i=parseInt(a.substr(n,2),16)^r,e+=String.fromCharCode(i);e=document.createTextNode(e),c.parentNode.replaceChild(e,c)}}}catch(u){}}();/* ]]&gt; */&lt;/script&gt; \nFormat settings, CABAC : Yes \nFormat settings, ReFrames : 4 frames  \nCodec ID : V_MPEG4/ISO/AVC  \nBit rate : 9000 kbps \nWidth : 1920 pixels \nHeight : 808 pixels \nDisplay aspect ratio : 2.40:1 \nFrame rate : 23.976 fps \nColor space : YUV \nChroma subsampling : 4:2:0 \nBit depth : 8 bits \nScan type : Progressive \nBits/(Pixel*Frame) : 0.242 \nStream size: 7.44 GiB \n\n\nAudio#1 \nFormat: AC3\nBit rate :640 Kbps\nChannel(s) : 6 channels\nChannel positions:Front: L C R, Side: L R, LFE\nSampling rate: 48.0 KHz\nBit depth: 16bits\nCompression mode: Lossy\nStream size: 545 GiB\nLanguage : English\n\n\nSUB:Arabic(SRT),English,Chinese\nThe same subtitle format used on BDs/HD-DVDs\n\nINFO FILES TRACKERS COMMENTS ( 0 )\nPopularity Bookmark Suggest to friends Add to Collection Send to Wall  More Sharing Services\n0\nExternal Info : Subtitles | Trailer | Wikipedia | Other InfoDescription .\n\nMovies : Action : BluRay : English\n\n\nOlympus Has Fallen 2013 1080p x264 AC3 - alrmothe\n\n\n\n\n\n\n\n\n\n\n\nIMDB: &lt;a href=&quot;\nhttp://www.imdb.com/title/tt2302755/&quot; rel=&quot;nofollow&quot; target=&quot;_NEW&quot;&gt;\nhttp://www.imdb.com/title/tt2302755/&lt;/a&gt;\nGenre:Action | Thriller \nSource:Blu-ray Disc\nLanguage:English\nFile size:8.13 GiB\nOverall bit rate:9973 Kbps\nDuration:1h 59mn\nEncoded / Released By:alrmothe\n\n\nStoryline:When the White House (Secret Service Code: &quot;Olympus&quot;) is captured by a terrorist mastermind and the President is kidnapped, disgraced former Presidential guard Mike Banning finds himself trapped within the building. As our national security team scrambles to respond, they are forced to rely on Banning's inside knowledge to help retake the White House, save the President and avert an even bigger disaster. \n\n\ncast\nGerard Butler\t... Mike Banning\nAaron Eckhart ... President Benjamin Asher\nFinley Jacobsen\t ... Connor\nDylan McDermott\t ... Forbes\nRick Yune ... Kang\nMorgan Freeman ... Speaker Trumbull\n\n\n\n\nVideo Information\nFormat: Matroska\nFormat : AVC \nFormat/Info : Advanced Video Codec \nFormat profile : &lt;a class=&quot;__cf_email__&quot; href=&quot;/cdn-cgi/l/email-protection&quot; data-cfemail=&quot;4f072628270f037b617e&quot;&gt;[email&amp;#160;protected]&lt;/a&gt;&lt;script cf-hash='f9e31' type=&quot;text/javascript&quot;&gt;\n/* &lt;![CDATA[ */!function(){try{var t=&quot;currentScript&quot;in document?document.currentScript:function(){for(var t=document.getElementsByTagName(&quot;script&quot;),e=t.length;e--;)if(t[e].getAttribute(&quot;cf-hash&quot;))return t[e]}();if(t&amp;&amp;t.previousSibling){var e,r,n,i,c=t.previousSibling,a=c.getAttribute(&quot;data-cfemail&quot;);if(a){for(e=&quot;&quot;,r=parseInt(a.substr(0,2),16),n=2;a.length-n;n+=2)i=parseInt(a.substr(n,2),16)^r,e+=String.fromCharCode(i);e=document.createTextNode(e),c.parentNode.replaceChild(e,c)}}}catch(u){}}();/* ]]&gt; */&lt;/script&gt; \nFormat settings, CABAC : Yes \nFormat settings, ReFrames : 4 frames \nCodec ID : V_MPEG4/ISO/AVC \nBit rate : 9000 kbps \nDisplay aspect ratio : 2.40:1 \nFrame rate : 23.976 fps \nColor space : YUV \nChroma subsampling : 4:2:0 \nBit depth : 8 bits \nScan type : Progressive \nBits/(Pixel*Frame) : 0.242 \nStream size: 7.44 GiB \nResolution:1920x808\n\n\nAudio Information:\nFormat: AC3\nBit rate 640 Kbps\nChannel(s) : 6 channels\nChannel positions:Front: L C R, Side: L R, LFE\nSampling rate: 48.0 KHz\nBit depth: 16 bits\nCompression mode: Lossy\nLanguage:English\n\n\n\n\n\n\nSUB:Arabic(SRT),English,Chinese\nThe same subtitle format used on BDs/HD-DVDs\n\n\n\n\nScreenshots\n &lt;a href=&quot;\nhttp://img542.imageshack.us/img542/7751/tsm.png&quot; rel=&quot;nofollow&quot; target=&quot;_NEW&quot;&gt;\nhttp://img542.imageshack.us/img542/7751/tsm.png&lt;/a&gt; &lt;a href=&quot;\nhttp://img40.imageshack.us/img40/8391/v0ys.png&quot; rel=&quot;nofollow&quot; target=&quot;_NEW&quot;&gt;\nhttp://img40.imageshack.us/img40/8391/v0ys.png&lt;/a&gt; &lt;a href=&quot;\nhttp://img16.imageshack.us/img16/5035/tq3a.png&quot; rel=&quot;nofollow&quot; target=&quot;_NEW&quot;&gt;\nhttp://img16.imageshack.us/img16/5035/tq3a.png&lt;/a&gt; &lt;a href=&quot;\nhttp://img197.imageshack.us/img197/687/90j.png&quot; rel=&quot;nofollow&quot; target=&quot;_NEW&quot;&gt;\nhttp://img197.imageshack.us/img197/687/90j.png&lt;/a&gt; &lt;a href=&quot;\nhttp://img19.imageshack.us/img19/3151/r0a8.png&quot; rel=&quot;nofollow&quot; target=&quot;_NEW&quot;&gt;\nhttp://img19.imageshack.us/img19/3151/r0a8.png&lt;/a&gt; &lt;a href=&quot;\nhttp://img59.imageshack.us/img59/641/5zct.png&quot; rel=&quot;nofollow&quot; target=&quot;_NEW&quot;&gt;\nhttp://img59.imageshack.us/img59/641/5zct.png&lt;/a&gt; &lt;a href=&quot;\nhttp://img35.imageshack.us/img35/3973/5fsn.png&quot; rel=&quot;nofollow&quot; target=&quot;_NEW&quot;&gt;\nhttp://img35.imageshack.us/img35/3973/5fsn.png&lt;/a&gt;\n","torrent":{"xt":"urn:btih:f4d2b6e0b37c422ec9c27b2261d1f023bb5ba2bf","amp;dn":"Olympus+Has+Fallen+2013+1080p+x264+AC3+-+alrmothe","amp;tr":["udp%3A%2F%2Ftracker.openbittorrent.com%3A80","udp%3A%2F%2Fopen.demonii.com%3A1337","udp%3A%2F%2Ftracker.coppersurfer.tk%3A6969","udp%3A%2F%2Fexodus.desync.com%3A6969"],"infoHash":"f4d2b6e0b37c422ec9c27b2261d1f023bb5ba2bf","infoHashBuffer":{"type":"Buffer","data":[244,210,182,224,179,124,66,46,201,194,123,34,97,209,240,35,187,91,162,191]},"announce":[],"urlList":[]}}